# xmcd
#
# Track frame offsets: 
#        150
#        16425
#        37387
#        58200
#        75570
#        95144
#        113519
#        131743
#        150395
#        169594
#        188943
#
# Disc length: 2790 seconds
#
# Revision: 0
# Processed by: cddbd v1.5.2PL0 Copyright (c) Steve Scherf et al.
# Submitted via: ExactAudioCopy v0.99pb4
#
DISCID=900ae40b
DTITLE=Ariel Rivera - Once Again
DYEAR=2008
DGENRE=OPM
TTITLE0=Softly Saying Sorry
TTITLE1=When I'm With You
TTITLE2=Kakayanin Ko Ba?
TTITLE3=Love Won't Leave Me Alone
TTITLE4=Why You Have To Go
TTITLE5=Kaya Lang
TTITLE6=Kung Ako Na Lang Sana
TTITLE7=Minsan Pa Lang
TTITLE8=Go The Distance
TTITLE9=Bridge To Forever
TTITLE10=Ready To Fly
EXTD=
EXTT0=
EXTT1=
EXTT2=
EXTT3=
EXTT4=
EXTT5=
EXTT6=
EXTT7=
EXTT8=
EXTT9=
EXTT10=
PLAYORDER=
